<?xml version="1.0" encoding="UTF-8"?>
<svg xmlns="http://www.w3.org/2000/svg" xmlns:xlink="http://www.w3.org/1999/xlink" viewBox="0 0 500 500">
  <defs>
    <style>
      .cls-1 {
        fill: url(#linear-gradient-2);
      }

      .cls-2 {
        fill: #fff;
      }

      .cls-3 {
        fill: url(#linear-gradient);
      }
    </style>
    <linearGradient id="linear-gradient" x1="250" y1="3.69" x2="250" y2="496.23" gradientUnits="userSpaceOnUse">
      <stop offset="0" stop-color="#060314"/>
      <stop offset="1" stop-color="#204499"/>
    </linearGradient>
    <linearGradient id="linear-gradient-2" x1="123.84" y1="131.07" x2="417.08" y2="226.47" gradientUnits="userSpaceOnUse">
      <stop offset=".1" stop-color="#060314" stop-opacity="0"/>
      <stop offset=".51" stop-color="#00067d" stop-opacity=".34"/>
      <stop offset=".53" stop-color="#000782" stop-opacity=".36"/>
      <stop offset=".61" stop-color="#032493" stop-opacity=".46"/>
      <stop offset=".79" stop-color="#0d6fbe" stop-opacity=".73"/>
      <stop offset=".95" stop-color="#17baea"/>
      <stop offset=".96" stop-color="#3ac4ed"/>
      <stop offset=".98" stop-color="#95dff5"/>
      <stop offset="1" stop-color="#fff"/>
    </linearGradient>
  </defs>
  <g id="Background">
    <rect class="cls-3" width="500" height="500" rx="75" ry="75"/>
  </g>
  <g id="Layer_1" data-name="Layer 1">
    <path id="Path" class="cls-2" d="M335.8,261.92c-5.74,1.32-20.86,2.07-20.86,2.07l-1.91,5.98s7.54-.64,13.04-.08c0,0,1.79-.2,1.99,2.03.08,2.07-.16,4.31-.16,4.31,0,0-.12,1.36-2.03,1.68-2.07.36-16.27.88-16.27.88l-2.31,7.78s-.84,1.79,1.08,1.28c1.79-.48,16.67-3.27,18.63-2.87,2.07.52,4.39,3.27,3.71,5.82-.8,3.11-15.64,12.6-24.69,11.93,0,0-4.75.32-8.78-6.1-3.75-6.1,1.44-17.71,1.44-17.71,0,0-2.35-5.42-.64-7.22,0,0,1.04-.92,3.99-1.16l3.63-7.54s-4.15.28-6.62-2.75c-2.31-2.91-2.47-4.23-.72-5.03,1.87-.92,19.15-4.07,31.03-3.67,0,0,4.15-.4,7.7,6.78-.04,0,1.72,2.91-1.24,3.59ZM291.09,290.88c-1.52,3.59-5.54,7.42-10.53,5.03-4.95-2.39-12.8-18.47-12.8-18.47,0,0-2.99-5.98-3.55-5.86,0,0-.64-1.16-1.04,5.38-.4,6.54.08,19.27-2.51,21.26-2.47,1.99-5.46,1.2-7.02-1.16-1.4-2.31-1.99-7.82-1.24-17.47.92-9.65,3.15-19.94,6.02-23.17,2.87-3.19,5.19-.88,6.06-.04,0,0,3.83,3.47,10.17,13.68l1.12,1.87s5.74,9.65,6.34,9.61c0,0,.48.44.88.12.6-.16.36-3.27.36-3.27,0,0-1.2-10.49-6.42-28.28,0,0-.8-2.23-.24-4.31.52-2.11,2.63-1.12,2.63-1.12,0,0,8.14,4.07,12.05,17.31,3.87,13.36,1.24,25.29-.28,28.88ZM251.12,256.86c-.68,1.36-1.08,3.31-4.51,3.83,0,0-32.83,2.23-34.38,4.55,0,0-1.16,1.36.64,1.76,1.79.36,9.21,1.36,12.8,1.56,3.83.04,16.75.16,21.38,5.94,0,0,2.75,2.75,2.63,8.97-.12,6.38-1.24,8.62-3.71,10.93-2.59,2.15-24.85,12.13-39.21-3.19,0,0-6.62-7.38,2.27-12.96,0,0,6.42-3.87,22.74.68,0,0,4.95,1.79,4.71,3.59-.28,1.91-4.07,3.95-9.57,3.83-5.34-.16-9.25-2.71-8.5-2.31.72.28-5.74-3.11-7.74-.8-1.99,2.11-1.52,3.43.44,4.75,4.99,2.83,24.25,1.83,30-4.55,0,0,2.27-2.59-1.2-4.71-3.47-1.99-13.4-3.19-17.27-3.39-3.71-.2-17.51.04-19.5-3.63,0,0-1.99-2.47.2-9.49,2.31-7.34,18.39-10.17,25.33-10.81,0,0,19.11-.68,22.62,3.23-.04,0,.44.92-.16,2.23ZM196.88,299.9c-2.31,1.72-7.22.96-8.62-.96-1.4-1.72-1.87-8.54-1.6-19.23.28-10.81.52-24.21,2.83-26.33,2.47-2.15,3.99-.28,4.95,1.2,1.04,1.44,2.27,3.03,2.55,6.42.24,3.39,1.04,21.18,1.04,21.18,0,0,1.04,16.03-1.16,17.71ZM201.86,242.54c-6.74,2.23-11.37,1.48-15.28-.2-1.72,2.99-2.71,3.91-4.03,4.11-1.91.2-3.63-2.87-3.95-3.87-.32-.76-1.24-2.03-.12-5.07-3.83-3.43-4.11-8.06-3.47-11.17.96-3.59,7.42-17.23,27.08-18.83,0,0,9.61-.72,11.25,4.43h.28s9.33.04,9.13,8.34c-.12,8.34-10.37,18.71-20.9,22.26ZM183.52,224.07c-1.99,3.19-2.07,5.11-1.16,6.42,2.27-3.47,6.42-8.93,12.52-13.08-4.71.4-8.66,2.43-11.37,6.66ZM210.68,218.73c-6.18.92-15.76,9.21-20.3,15.99,6.98,1.28,19.31.8,24.77-10.33-.04,0,2.59-6.9-4.47-5.66ZM378.52,282.98c-3.71,6.46-14.12,19.94-28,16.79-4.59,11.13-8.42,22.34-10.61,39.17,0,0-.48,3.27-3.19,2.11-2.67-.96-7.14-5.42-8.02-11.61-.96-8.14,2.67-21.9,10.05-37.65-2.15-3.51-3.63-8.54-2.35-15.68,0,0,1.87-13.24,15.16-25.21,0,0,1.6-1.4,2.51-.96,1.04.44.56,4.75-.28,6.82-.84,2.07-6.78,12.37-6.78,12.37,0,0-3.71,6.94-2.67,12.4,6.98-10.73,22.86-32.39,32.71-25.57,3.31,2.35,4.83,7.5,4.83,13.04-.04,4.91-1.2,10.09-3.35,13.96ZM375.65,265.99s-.56-4.27-4.71.44c-3.59,3.95-10.05,11.41-15.28,21.5,5.46-.6,10.73-3.59,12.33-5.11,2.59-2.31,8.62-8.54,7.66-16.83ZM182,271.42c-.76,9.65-4.47,25.89-30.75,33.9-17.35,5.23-33.74,2.71-42.68.44-.2,3.55-.6,5.07-1.16,5.66-.76.76-6.42,4.03-9.53-.6-1.4-2.19-2.11-6.18-2.51-9.73-20.1-9.25-29.36-22.58-29.72-23.17-.44-.44-5.03-5.23-.44-11.09,4.31-5.3,18.39-10.61,31.07-12.76.44-10.85,1.72-19.03,3.23-22.78,1.83-4.35,4.15-.44,6.14,2.51,1.68,2.19,2.67,11.65,2.75,19.19,8.3-.4,13.2.2,22.46,1.87,12.05,2.19,20.1,8.34,19.39,15.32-.52,6.86-6.82,9.69-9.21,9.89-2.51.2-6.42-1.6-6.42-1.6-2.67-1.28-.2-2.39,3.03-3.79,3.51-1.72,2.71-3.47,2.71-3.47-1.32-3.83-16.95-6.5-32.51-6.5-.08,8.58.36,22.82.56,31.11,10.89,2.07,19.03,1.68,19.03,1.68,0,0,39.73-1.12,40.92-26.49,1.24-25.41-39.61-49.78-69.8-57.52-30.15-7.9-47.23-2.39-48.7-1.64-1.6.8-.12,1.04-.12,1.04,0,0,1.64.24,4.47,1.2,2.99.96.68,2.51.68,2.51-5.15,1.64-10.93.6-12.05-1.76-1.12-2.35.76-4.47,2.91-7.5,2.15-3.19,4.51-3.07,4.51-3.07,37.29-12.92,82.73,10.45,82.73,10.45,42.56,21.58,49.82,46.87,49.02,56.68ZM69.44,270.1c-4.23,2.07-1.32,5.07-1.32,5.07,7.94,8.54,17.71,13.88,27,17.19,1.08-14.72.92-19.9,1.04-27.32-14.52,1-22.9,3.31-26.72,5.07Z"/>
    <path id="Path-1" class="cls-2" d="M457.5,267.07v5.27c0,1.16-.92,2.07-2.07,2.07h-25.09c0,1.32.04,2.47.04,3.55,0,7.78-.32,14.12-1.08,21.26-.12,1.08-1,1.87-2.03,1.87h-5.42c-.56,0-1.08-.24-1.44-.64-.36-.4-.56-.96-.48-1.52.76-7.1,1.12-13.36,1.12-20.98,0-1.12,0-2.27-.04-3.55h-24.81c-1.16,0-2.07-.92-2.07-2.07v-5.27c0-1.16.92-2.07,2.07-2.07h24.45c-.52-8.58-1.56-16.83-3.23-25.21-.08-.52.04-1.04.36-1.44s.8-.64,1.32-.64h5.86c.92,0,1.68.64,1.87,1.56,1.64,8.66,2.67,17.07,3.19,25.73h25.41c1.12,0,2.07.96,2.07,2.07Z"/>
    <path id="Path-3" class="cls-1" d="M423.36,225.31c-12.96-31.87-34.86-59.03-63.34-78.58-29.16-19.98-63.34-30.55-98.84-30.55-58.71,0-113.2,29.16-145.71,78.02-.36.52-.44,1.2-.24,1.79.2.64.68,1.08,1.28,1.28l4.55,1.56c.28.08.56.12.8.12.84,0,1.64-.44,2.11-1.12,14.92-21.94,35.1-40.17,58.39-52.77,24.05-13,51.29-19.9,78.78-19.9,33.23,0,65.26,9.81,92.7,28.32,26.76,18.07,47.55,43.32,60.11,72.95.36.88,1.24,1.48,2.19,1.48h5.42c.64,0,1.24-.32,1.56-.84.4-.52.48-1.16.24-1.76ZM121.85,197.59c-.12,0-.24-.04-.36-.08.12.04.24.08.36.08h.08-.08ZM415.02,227.18c.12.08.24.16.36.2-.12-.08-.24-.12-.36-.2Z"/>
  </g>
</svg>