<?xml version="1.0" encoding="UTF-8"?>
<svg id="Background" xmlns="http://www.w3.org/2000/svg" viewBox="0 0 500 500">
  <defs>
    <style>
      .cls-1 {
        fill: #fff;
      }

      .cls-2 {
        fill: #ff001e;
      }
    </style>
  </defs>
  <g id="DR1">
    <rect class="cls-2" width="500" height="500" rx="75" ry="75"/>
  </g>
  <g id="Koncernlogo">
    <path d="M500,350v75c0,41.25-33.75,75-75,75H75c-41.25,0-75-33.75-75-75v-75h500Z"/>
    <path class="cls-1" d="M199.54,386.67h-107c-.71-.08-1.34.44-1.42,1.15-.01.09-.01.18,0,.27v72.06c-.07.72.45,1.36,1.17,1.43.08.01.17.01.25,0h107c31.44,0,47.3-10.44,47.3-37.69s-15.87-37.22-47.3-37.22ZM171.84,447.81h-33.52c-.95,0-1.15-.38-1.15-1.14v-45.1c0-.75.2-1.14,1.15-1.14h33.52c19.93,0,27.91,5.69,27.91,23.65s-7.98,23.73-27.91,23.73Z"/>
    <path class="cls-1" d="M415.62,458.54l-30.95-21.83c-.76-.58-1.25-.86-1.25-1.25s.29-.58.96-.58c15.63,0,27.81-7.31,27.81-23.44s-10.4-24.77-29.69-24.77h-117.25c-.71-.08-1.34.43-1.42,1.14-.01.09-.01.19,0,.28v72.06c-.07.71.44,1.35,1.16,1.43.08.01.17.01.26,0h43.12c.72.07,1.36-.45,1.43-1.16.01-.09.01-.18,0-.27v-17.09c0-.85.29-1.13,1.14-1.13h24.83c1.25,0,1.71.09,2.57.76l21.55,17.85c.83.74,1.93,1.12,3.03,1.04h53.65c.77,0,1.15-.29,1.15-.86.02-.76-1.31-1.61-2.1-2.18ZM348.44,428.54h-37.41c-.86,0-1.14-.28-1.14-1.13v-25.84c0-.85.28-1.14,1.14-1.14h37.41c12.53,0,17.85,3.43,17.85,13.75s-5.32,14.36-17.85,14.36Z"/>
  </g>
  <g id="TV">
    <path class="cls-1" d="M220.07,218.6l76.18-43.99c1.47-.85,1.97-2.73,1.12-4.2-.27-.47-.66-.85-1.12-1.12l-76.19-43.98c-1.47-.85-3.34-.35-4.19,1.12-.27.47-.41,1-.41,1.54v87.97c0,1.7,1.37,3.08,3.07,3.08.54,0,1.08-.14,1.55-.42Z"/>
    <path class="cls-1" d="M247.87,292.14c-48.22.05-91.78-28.79-110.55-73.21l28.01-11.88c14.02,33.16,46.54,54.7,82.54,54.66,49.41,0,89.61-40.19,89.61-89.6s-40.19-89.61-89.61-89.61c-36.03-.04-68.57,21.53-82.57,54.73l-28.02-11.88c18.75-44.46,62.33-73.34,110.59-73.28,66.19,0,120.03,53.84,120.03,120.03s-53.84,120.03-120.03,120.03Z"/>
  </g>
</svg>