<?xml version="1.0" encoding="UTF-8"?>
<svg id="Background" xmlns="http://www.w3.org/2000/svg" xmlns:xlink="http://www.w3.org/1999/xlink" viewBox="0 0 500 500">
  <defs>
    <style>
      .cls-1 {
        fill: #fff;
      }

      .cls-2 {
        fill: url(#radial-gradient);
      }
    </style>
    <radialGradient id="radial-gradient" cx="250" cy="250" fx="250" fy="250" r="323.69" gradientUnits="userSpaceOnUse">
      <stop offset="0" stop-color="#03f"/>
      <stop offset=".93" stop-color="#222060"/>
    </radialGradient>
  </defs>
  <rect class="cls-2" width="500" height="500" rx="75" ry="75"/>
  <path id="path321" class="cls-1" d="M130.28,202.1c-9.55,0-19.25,4.25-31.68,13.8v-11.37h-23.5v90.94h25.01v-56.54c10.91-8.64,15.91-11.37,20.01-11.37,4.85,0,8.03,3.03,8.03,10.61v57.3h25.01v-56.69c10.91-8.49,15.77-11.22,20.01-11.22,4.85,0,8.03,3.03,8.03,10.61v57.3h25.01v-66.09c0-20.46-11.67-27.28-22.89-27.28-9.55,0-19.25,3.94-31.98,13.64-4.08-10.16-13.03-13.64-21.06-13.64ZM256.99,202.1c-24.86,0-45.47,21.37-45.47,47.9s20.62,47.9,45.47,47.9c12.28,0,22.89-4.54,31.08-14.4v11.98h23.8v-90.94h-23.8v11.98c-8.19-9.86-18.8-14.4-31.08-14.4ZM316.27,204.53c10.31,16.06,21.98,30.47,35.62,44.87-13.64,15-25.32,30.62-35.62,46.07h30.16c7.12-11.52,15.15-21.98,24.41-31.83,9.09,9.85,16.67,20.31,23.8,31.83h30.47c-10.46-15.91-21.83-31.07-35.47-46.07,13.49-14.4,25.01-29.25,35.47-44.87h-29.86c-7.43,11.52-15.46,21.22-24.4,30.77-9.09-9.55-17.13-19.25-24.41-30.77h-30.16ZM260.78,223.17c14.85,0,26.83,11.98,26.83,26.83s-11.98,26.83-26.83,26.83-26.83-11.97-26.83-26.83,11.98-26.83,26.83-26.83ZM260.78,229.23c-11.37,0-20.62,9.25-20.62,20.77s9.25,20.77,20.62,20.77,20.61-9.25,20.61-20.77-9.25-20.77-20.61-20.77Z"/>
</svg>