<?xml version="1.0" encoding="UTF-8"?>
<svg id="Background" xmlns="http://www.w3.org/2000/svg" xmlns:xlink="http://www.w3.org/1999/xlink" viewBox="0 0 500 500">
  <defs>
    <style>
      .cls-1 {
        fill: #fff;
      }

      .cls-2 {
        fill: url(#linear-gradient);
      }
    </style>
    <linearGradient id="linear-gradient" x1="3.3" y1="495.9" x2="497.73" y2="3.07" gradientUnits="userSpaceOnUse">
      <stop offset=".13" stop-color="#00183a"/>
      <stop offset=".63" stop-color="#00b1ff"/>
      <stop offset=".74" stop-color="#02b1ff"/>
      <stop offset=".79" stop-color="#09b3ff"/>
      <stop offset=".83" stop-color="#16b7ff"/>
      <stop offset=".86" stop-color="#28bdff"/>
      <stop offset=".89" stop-color="#40c4ff"/>
      <stop offset=".92" stop-color="#5ecdff"/>
      <stop offset=".94" stop-color="#81d8ff"/>
      <stop offset=".96" stop-color="#a9e4ff"/>
      <stop offset=".98" stop-color="#d6f2ff"/>
      <stop offset="1" stop-color="#fff"/>
    </linearGradient>
  </defs>
  <rect class="cls-2" width="500" height="500" rx="75" ry="75"/>
  <g>
    <g>
      <path class="cls-1" d="M255.44,422.86c-3.37-.08-6.75-.08-10.12,0-4.64-.25-9.27-.42-13.91-.76-12.31-.93-24.54-2.78-36.51-5.56-41.4-9.61-77.74-28.92-109.44-57-2.95-2.61-5.73-5.31-8.6-8.01-.67-.59-1.26-1.43-1.6-2.28-.51-1.18-.25-2.45.59-3.37s2.19-1.26,3.37-.76c.76.34,1.52.67,2.19,1.1,30.27,18.72,63.32,32.38,97.97,40.47,11.64,2.7,23.36,4.81,35.16,6.32,16.95,2.11,34.06,2.87,51.1,2.28,9.19-.25,18.3-1.1,27.4-2.28,21.25-2.7,42.24-7.5,62.56-14.25,10.71-3.54,21.16-7.59,31.37-12.31,1.52-.84,3.37-1.1,5.06-.67,2.78.67,4.47,3.54,3.79,6.32-.08.34-.25.76-.42,1.1-.67,1.26-1.6,2.36-2.78,3.2-9.7,7.59-20.15,14.25-31.2,19.81-20.83,10.54-43.09,18.04-66.02,22.34-13.24,2.36-26.56,3.79-39.97,4.3Z"/>
      <path class="cls-1" d="M400.38,340.65c5.56.17,11.05.51,16.44,1.94,1.52.42,2.95.93,4.38,1.6,1.94.76,3.2,2.61,3.46,4.64.34,2.36.42,4.81.25,7.25-1.1,14.42-5.56,28.33-12.98,40.72-2.7,4.47-5.99,8.52-9.78,12.06-.76.76-1.69,1.35-2.7,1.69-1.6.42-2.61-.42-2.7-2.02.08-.84.25-1.69.59-2.53,2.95-7.93,5.82-15.77,8.09-23.95,1.35-4.47,2.28-9.02,2.87-13.66.17-1.69.25-3.37.08-5.06-.08-2.87-1.94-5.31-4.72-6.16-2.61-.84-5.31-1.35-8.09-1.52-7.76-.34-15.51,0-23.19,1.01l-10.2,1.26c-1.1.08-2.11,0-2.7-1.01s-.34-2.02.25-3.04c.67-.93,1.52-1.77,2.53-2.36,6.24-4.47,13.24-7.17,20.66-8.94,5.73-1.18,11.55-1.77,17.45-1.94Z"/>
    </g>
    <g>
      <path class="cls-1" d="M424.91,271.12v.38c-.38-.38-.56-.94-.38-1.41v-.75s0-.09.09-.09h-.09v-.94h.19c0-.09-.09-.09-.09-.19-.19-1.79-.56-3.58-1.04-5.27-3.48-12.42-11.29-20.61-23.99-23.81-5.93-1.41-11.95-1.6-17.97-.66-12.7,1.88-21.83,8.66-26.25,20.7-4.33,11.48-4.23,24.09.09,35.57,3.76,10.44,11.29,17.03,22.11,19.76,5.74,1.41,11.76,1.79,17.69.94,19.76-2.35,27.95-17.31,29.26-30.3h-.09v-1.32c-.09-.56-.19-1.04.38-1.41v.19c0-.09.09-.28.19-.38v-10.82c0-.09-.09-.09-.09-.19ZM402.32,288.99c-.56,1.98-1.41,3.76-2.63,5.46-2.07,2.92-5.36,4.8-8.94,5.08-1.79.19-3.58.19-5.36-.19-3.95-.75-7.25-3.39-8.84-7.06-1.41-2.92-2.26-6.12-2.54-9.32-.47-5.55-.56-11.1.75-16.56.47-2.16,1.41-4.33,2.54-6.21,2.07-3.39,5.65-5.55,9.6-5.83,1.79-.19,3.58-.19,5.36.19,3.76.75,6.87,3.2,8.56,6.68,1.6,3.29,2.54,6.96,2.73,10.63.09,1.69.19,3.39.09,5.08.28,4.14-.19,8.19-1.32,12.04Z"/>
      <path class="cls-1" d="M316.79,283.82c5.46-.38,10.91-1.41,15.81-4.05,4.99-2.45,8.47-7.06,9.5-12.51.66-3.39.66-6.96-.09-10.35-1.98-8.47-7.34-13.74-15.43-16.47-4.52-1.41-9.32-1.98-14.02-1.79-15.81.38-27.85,8.37-32.74,24.18-3.29,10.44-2.82,21.08.38,31.52,3.29,10.73,10.82,17.22,21.55,20.14,4.61,1.13,9.41,1.6,14.11,1.41,6.87-.09,13.74-1.41,20.23-3.86,2.73-1.04,3.39-1.98,3.39-4.89v-6.77c-.09-2.73-1.22-3.67-3.95-3.01-2.07.56-4.05,1.04-6.12,1.51-6.3,1.51-12.89,1.79-19.29.66-6.4-1.22-10.73-4.89-12.42-11.29-.47-1.88-.85-3.76-1.04-5.74.47,0,.94,0,1.32.19,6.21,1.13,12.51,1.6,18.82,1.13ZM297.13,268.76c.66-3.67,1.51-7.25,3.76-10.26,3.48-4.61,8.28-5.93,13.74-5.36.47,0,.85.19,1.32.19,6.59,1.04,8.19,6.3,6.96,11.39-.94,3.76-4.05,5.18-7.53,5.83-1.88.38-3.86.56-5.83.47-3.86-.09-7.62-.38-11.39-.94-.85-.09-1.22-.47-1.04-1.32h0Z"/>
      <path class="cls-1" d="M259.96,207.13h-13.08c-3.58,0-4.23.66-4.23,4.23v30.49c0,.66.28,1.32-.19,1.98-.85-.09-1.32-.66-1.98-1.04-9.79-5.74-20.04-6.77-30.39-1.98-7.25,3.39-11.76,9.5-14.68,16.75-2.82,6.96-3.48,14.3-3.29,21.74,0,6.96,1.6,13.83,4.7,20.04,3.58,6.87,8.75,12.14,16.28,14.4,10.26,3.2,19.85,1.6,28.6-4.89.66-.38,1.04-1.04,1.88-1.22.47,1.04.85,2.16,1.04,3.29.38,1.51,1.69,2.54,3.29,2.54h2.26c3.39,0,6.68.09,9.97,0,2.63,0,3.39-.85,3.48-3.58v-99.18c-.09-2.92-.85-3.58-3.67-3.58ZM242.74,276.38v17.13c.19,1.13-.47,2.16-1.51,2.63-4.52,2.54-9.69,3.58-14.77,2.82-4.33-.47-8.09-3.11-10.07-6.96-1.51-3.01-2.35-6.21-2.63-9.5-.75-5.93-.28-11.95,1.13-17.69.47-1.6,1.04-3.11,1.88-4.61,1.98-3.67,5.74-6.02,9.88-6.3,4.99-.47,9.97.47,14.49,2.54,1.13.38,1.79,1.51,1.69,2.73-.19,5.83-.09,11.48-.09,17.22h0Z"/>
      <path class="cls-1" d="M178.66,276.95v33.87c-.19,1.88-1.04,2.73-2.92,2.82-5.08.09-10.07.09-15.15,0-1.88,0-2.73-.94-2.92-2.73-.09-.56-.09-1.22-.09-1.79v-65.11c.09-2.92.85-3.76,3.76-3.76h13.55c2.92,0,3.76.85,3.76,3.76v32.93h0Z"/>
      <path class="cls-1" d="M168.22,206.47c1.88-.19,3.76.19,5.55.94,3.67,1.41,6.21,4.8,6.4,8.75.75,8.56-4.99,12.89-12.61,12.7-1.04,0-2.07-.19-3.11-.38-5.83-1.41-8.84-5.93-8.28-12.42.47-5.18,4.52-9.03,10.07-9.5.66-.09,1.32-.19,1.98-.09Z"/>
      <path class="cls-1" d="M112.04,293.89c.56-1.88,1.13-3.67,1.69-5.55,4.33-14.58,8.66-29.08,12.99-43.66l.56-1.69c.47-1.69,2.07-2.73,3.76-2.73h14.3c3.58,0,4.33,1.04,3.11,4.42l-5.65,14.96c-6.3,16.37-12.61,32.84-18.91,49.21-.19.56-.47,1.13-.66,1.69-.66,1.98-2.63,3.29-4.7,3.11-4.14-.09-8.28-.09-12.42,0-2.92.09-4.61-1.22-5.65-3.86-2.35-6.21-4.8-12.51-7.15-18.72-5.65-14.77-11.39-29.55-17.03-44.41-.56-1.13-.94-2.45-1.22-3.67-.28-1.88.38-2.82,2.26-2.82,5.36-.09,10.73,0,16,0,2.26,0,3.29,1.51,3.86,3.48,1.04,3.58,2.07,7.25,3.2,10.82,3.86,13.08,7.62,26.25,11.48,39.33-.09.09,0,.09.19.09Z"/>
    </g>
    <g>
      <path class="cls-1" d="M384.58,149.39c6.67,1.25,13.52,1.33,20.19.27,3.91-.53,7.65-1.69,11.12-3.56,4-2.31,6.94-5.52,8.18-9.96,3.11-11.21-1.69-22.51-13.34-26.69-5.69-1.87-11.74-2.49-17.7-1.69-14.06,1.6-23.22,9.34-27.4,22.77-2.94,9.16-2.58,18.5-.18,27.76,3.11,11.83,10.94,18.86,22.77,21.35,6.76,1.51,13.61,1.25,20.37.18,3.56-.62,7.12-1.51,10.5-2.85,2.05-.8,3.11-2.05,3.02-4.36-.09-2.14,0-4.36,0-6.58,0-2.67-1.07-3.47-3.65-2.85s-5.07,1.16-7.65,1.69c-5.52,1.16-11.21,1.16-16.72.18-7.56-1.51-12.45-8.01-12.01-16.01.8.09,1.69.18,2.49.36ZM382.35,135.78c.27-2.14.89-4.18,1.69-6.14,2.67-6.49,8.27-8.72,13.97-8.36,1.6.09,3.2.44,4.71,1.07,2.31.98,3.83,3.11,4.09,5.6.27,1.51.18,3.11-.27,4.63-1.07,3.2-3.65,4.54-6.76,5.16-1.87.44-3.83.62-5.78.44-3.47,0-7.03-.27-10.5-.8q-1.33-.18-1.16-1.6Z"/>
      <path class="cls-1" d="M306.65,115.5c2.22-1.33,4.54-2.76,6.94-4,6.23-3.2,13.17-4.8,20.19-4.45,5.07.27,9.7,1.69,13.25,5.43,3.38,3.47,4.63,7.74,4.98,12.37.09.98.09,1.96.09,3.02v46.08c0,4-.53,4.54-4.54,4.54h-10.85c-.71,0-1.42,0-2.13-.09-1.07-.09-1.96-.98-2.13-2.05-.18-.98-.18-1.96-.18-2.94v-41.19c.09-1.69-.09-3.29-.53-4.89-.71-2.76-3.2-4.71-6.05-4.89-5.25-.36-10.5.71-15.3,2.94-.71.18-1.16.89-1.07,1.6v46.79c0,.89,0,1.69-.18,2.58,0,1.25-.98,2.14-2.22,2.14h0c-1.33.09-2.67.09-4.09.09h-9.43c-3.29,0-4-.8-4-4.09v-42.08c0-1.51-.09-3.11-.44-4.63-.62-3.02-3.2-5.16-6.23-5.34-5.34-.36-10.76.71-15.57,3.02-.71.18-1.16.98-.98,1.69v47.41c0,3.29-.71,4-4,4h-11.92c-3.11,0-3.91-.89-3.91-3.91v-61.74c0-.71.09-1.42.27-2.14.36-1.07,1.42-1.69,2.49-1.69h11.12c1.6,0,2.58.98,3.11,2.49.44,1.25.71,2.4,1.16,3.74.89,0,1.42-.62,2.05-.98,4.89-3.02,10.05-5.6,15.83-6.67,4.45-.89,8.9-.89,13.34,0,4.18.89,7.92,3.38,10.32,6.94.18.27.36.44.53.62-.09.09,0,.09.09.27Z"/>
      <path class="cls-1" d="M209.86,143.61v-31.58c.09-2.14.89-2.94,3.02-3.02,4.63-.09,9.25-.09,13.88,0,2.05,0,2.67.62,2.85,2.67.09.8.09,1.51.09,2.31v59.25c0,.98-.09,1.96-.18,2.94-.09,1.16-.98,1.96-2.13,2.05-.53.09-.98.09-1.51.09h-12.37c-.44,0-.8,0-1.25-.09-1.25-.09-2.31-1.07-2.4-2.31-.09-.71-.09-1.42-.09-2.14.09-9.87.09-20.02.09-30.16Z"/>
      <path class="cls-1" d="M220.18,77.16c1.42-.09,2.85.18,4.18.62,4.8,1.6,7.29,5.78,6.85,11.21-.36,4.63-3.83,8.36-8.45,9.07-1.96.36-4,.36-5.96,0-5.07-.98-8.81-4.71-8.45-11.12.53-6.32,4.71-9.79,11.83-9.79Z"/>
      <path class="cls-1" d="M175.17,118.88c.62-.18,1.16-.53,1.51-1.07,1.6-1.6,3.29-3.11,5.07-4.54,4.63-3.56,10.41-5.34,16.19-4.89,2.31.09,3.11.8,3.29,3.02.18,3.02.09,6.14.09,9.16.09,1.25,0,2.4-.18,3.65-.36,1.6-.98,2.22-2.58,2.4-1.25.09-2.4,0-3.65-.09-5.96-.53-11.74.62-17.35,2.49-1.25.44-1.25,1.33-1.25,2.31v42.7c0,.8,0,1.51-.09,2.31-.09,1.16-.98,2.05-2.14,2.05-.62.09-1.33.09-1.96.09h-11.56c-.62,0-1.33,0-1.96-.09-1.16-.09-2.05-1.07-2.14-2.22-.09-.71-.09-1.42-.09-2.14v-60.49c0-4.09.44-4.54,4.54-4.54h8.54c2.31,0,3.38.8,4,3.02s1.16,4.45,1.69,6.85Z"/>
      <path class="cls-1" d="M143.23,136.31c-.36-4.63-1.6-9.16-3.47-13.34-3.65-7.65-9.25-13.25-17.79-15.21-9.79-2.14-18.59,0-26.6,5.96-.53.53-1.16.98-1.87,1.33-.18-.09-.36-.18-.36-.27-.27-.89-.44-1.78-.71-2.67-.71-2.22-1.6-3.02-4-3.02-2.67,0-5.43.09-8.1,0-2.05-.09-3.91.18-5.34,1.78,0,31.14,0,62.36.09,93.41,1.16,1.87,2.94,2.22,4.98,2.13,3.2-.09,6.41,0,9.61,0q5.6,0,5.6-5.52v-25.35c0-.62-.27-1.33.36-1.87,4.45,3.47,9.87,5.6,15.48,6.14,7.83.8,14.95-1.16,20.91-6.49,4.36-4,7.56-9.16,9.25-14.86,2.4-7.29,2.58-14.68,1.96-22.15ZM121.97,154.73c-.62,2.76-2.05,5.25-4.09,7.12-2.31,1.96-5.16,3.11-8.18,3.11-4.54.27-8.98-.71-12.99-2.85-.98-.44-1.6-1.42-1.51-2.49v-16.1c0-5.34.09-10.68,0-16.01-.09-1.25.62-2.31,1.78-2.76,4.89-2.31,9.96-3.38,15.3-2.31,3.74.53,6.94,2.94,8.45,6.41,1.33,2.85,2.14,5.96,2.31,9.07.53,5.69.53,11.39-1.07,16.81Z"/>
    </g>
  </g>
</svg>