<?xml version="1.0" encoding="UTF-8"?><svg id="Layer_1" xmlns="http://www.w3.org/2000/svg" xmlns:xlink="http://www.w3.org/1999/xlink" viewBox="0 0 64 64"><defs><linearGradient id="linear-gradient" x1=".37" y1="63.46" x2="63.48" y2=".69" gradientUnits="userSpaceOnUse"><stop offset="0" stop-color="#3f15ff"/><stop offset="0" stop-color="#4015fb"/><stop offset=".05" stop-color="#4f1adf"/><stop offset=".09" stop-color="#5b1ec7"/><stop offset=".14" stop-color="#6521b5"/><stop offset=".21" stop-color="#6c23a8"/><stop offset=".29" stop-color="#6f24a1"/><stop offset=".47" stop-color="#71259f"/><stop offset=".57" stop-color="#76239b"/><stop offset=".7" stop-color="#841f91"/><stop offset=".83" stop-color="#9d1980"/><stop offset=".97" stop-color="#bc126b"/></linearGradient></defs><rect width="64" height="64" rx="8.75" ry="8.75" fill="url(#linear-gradient)"/><path d="M39.5,38.46c.15.04.3.06.46.06.6,0,1.06-.23,1.37-.68.31-.45.47-1.01.47-1.68,0-.49-.11-.94-.32-1.36s-.75-.86-1.6-1.33c-.9-.5-1.55-.92-1.95-1.26-.09-.08-.16-.19-.25-.28,0,.12-.02.24-.02.36,0,2.28.68,4.4,1.85,6.17Z" fill="#fff"/><path d="M58.28,25.99s-.03,0-.05,0c-.78,0-1.32.56-1.63,1.68-.31,1.12-.46,2.65-.46,4.6s.15,3.43.45,4.57.86,1.71,1.66,1.71c.02,0,.04-.01.06-.01,1.19-1.79,1.89-3.93,1.89-6.24s-.71-4.5-1.92-6.3Z" fill="#fff"/><path d="M55.24,38.62c-.7-1.43-1.05-3.55-1.05-6.36s.35-4.9,1.04-6.34c.4-.83.91-1.39,1.52-1.74-2.03-1.96-4.78-3.17-7.82-3.17s-5.67,1.16-7.69,3.04c1.08.52,1.8,1.74,2.17,3.67l-1.59.81c-.19-.87-.43-1.51-.74-1.93-.31-.42-.72-.62-1.25-.62-.11,0-.19.05-.29.07-.49.74-.89,1.54-1.19,2.38.05.42.17.8.4,1.07.3.36.9.78,1.8,1.28.77.42,1.35.83,1.77,1.21.41.38.75.9,1,1.54s.38,1.39.38,2.24c0,1.38-.33,2.55-1,3.52-.39.57-.89.95-1.48,1.19,2.02,1.9,4.73,3.07,7.71,3.07s5.83-1.22,7.86-3.2c-.62-.35-1.14-.91-1.55-1.74ZM52.4,40.46h-1.87v-7.31h-3.32v7.31h-1.87v-16.41h1.87v6.8h3.32v-6.8h1.87v16.41Z" fill="#fff"/><path d="M14.98,34.37c0,1.24-.55,2.22-1.64,2.95-1,.67-2.25,1-3.76,1-2.18,0-3.29,0-5.79.03l.03-.98c.04-1.05,1.06-1.89,2.3-1.89,1.44,0,2.95.01,3.65.01.4,0,.76-.08,1.09-.23.38-.19.56-.45.56-.77,0-.5-.54-.98-1.63-1.43l-1.26-.54c-2.42-1.03-3.63-2.32-3.63-3.88,0-1.09.5-1.98,1.5-2.67.93-.65,2.05-.97,3.37-.97,2.06,0,2.68.04,4.45,0v1.29c0,.89-.87,1.61-1.92,1.6s-2.01-.03-2.49-.03c-.9,0-1.34.26-1.34.79,0,.33.45.68,1.35,1.06l1.37.58c1.24.52,2.13,1.04,2.68,1.55.74.69,1.11,1.53,1.11,2.52Z" fill="#fff"/><path d="M21.51,31.39l3.23-4.27,1.36-1.79h-1.71c-1.04,0-2.02.55-2.68,1.51l-2.9,4.21,3.87,6.1c.42.54,1,.83,1.61.83h2.36l-5.14-6.6ZM15.63,22.46v15.53h2.22c.53,0,.97-.51.97-1.15v-16.41h-.99c-.94,0-2.19.91-2.19,2.03Z" fill="#fff"/><path d="M35.64,25.38c-.65.02-1.26.42-1.59,1.07l-2.78,5.35-5.17-6.48h-.33l-1.19,1.57.17.22,5.14,7.14-4.14,7.83h1.96c.79,0,1.52-.5,1.91-1.29l7.67-15.47-1.64.06Z" fill="#fff"/></svg>