<?xml version="1.0" encoding="UTF-8"?>
<svg id="Background" xmlns="http://www.w3.org/2000/svg" viewBox="0 0 500 500">
  <defs>
    <style>
      .cls-1 {
        fill: #fff;
      }

      .cls-2 {
        fill: #df1b12;
      }

      .cls-3 {
        fill: #000523;
      }
    </style>
  </defs>
  <rect class="cls-3" width="500" height="500" rx="75" ry="75"/>
  <circle class="cls-2" cx="250" cy="250" r="215.04"/>
  <g>
    <path id="path17" class="cls-1" d="M367.8,326.73l23.22-34.15h-136.61c-3.42,0-7.51,2.05-8.88,4.78l-23.22,34.15h136.61c2.73.68,6.83-2.05,8.88-4.78h0Z"/>
    <path id="path13" class="cls-1" d="M105.16,207.24h123.35c3.42,0,7.51-2.05,8.88-4.78l23.22-34.15-155.47-.95"/>
    <path id="path2" class="cls-1" d="M413.61,209.98c1.37,31.42-32.79,59.42-64.89,59.42h-84.01l23.22-34.15c2.05-2.73,6.15-4.78,8.88-4.78h58.06c7.51,0,15.71-6.83,15.03-14.34-.68-6.15-5.46-8.88-10.93-8.88h-129.78l22.54-34.15c2.05-2.73,6.15-4.78,8.88-4.78h106.55c23.22,0,45.08,17.08,46.45,41.67Z"/>
  </g>
  <path class="cls-1" d="M255.28,230.47l-32.97,64.15c-5.95,10.08-11.06,20.13-19.77,26.88-8.72,6.75-20.33,10.12-34.83,10.12s-25.49-3.28-33.14-9.83c-7.66-6.55-11.48-15.98-11.48-28.27v-63.05h38.06v62.97c0,6.03,2.78,9.04,8.34,9.04,3.88,0,6.48-1.67,9.55-5.12,2.24-2.52,4.14-5.33,5.78-8.28l32.41-58.61h38.06Z"/>
</svg>